<?xml version="1.0" encoding="utf-8"?>
<!-- Generator: Adobe Illustrator 16.0.0, SVG Export Plug-In . SVG Version: 6.00 Build 0)  -->
<!DOCTYPE svg PUBLIC "-//W3C//DTD SVG 1.1//EN" "http://www.w3.org/Graphics/SVG/1.1/DTD/svg11.dtd">
<svg version="1.1" id="Layer_2" xmlns="http://www.w3.org/2000/svg" xmlns:xlink="http://www.w3.org/1999/xlink" x="0px" y="0px"
	 width="105.9px" height="105.9px" viewBox="0 0 105.9 105.9" enable-background="new 0 0 105.9 105.9" xml:space="preserve">
<g>
	<path fill="#E0E0E0" d="M55.495,0.002c-0.372,0-0.62,0-0.87,0c-0.247,0-0.372,0-0.619,0c-0.125,0-0.373,0-0.622,0
		c-0.124,0-0.248,0-0.372,0c0,0,0,0-0.125,0c0,0-0.124,0-0.248,0c-0.248,0-0.498,0-0.745,0c-0.125,0-0.373,0-0.496,0
		c-0.373,0-0.621,0-0.87,0c-13.656,0.619-25.201,5.704-35.009,15.5C5.216,25.917,0.001,38.318,0.001,52.95
		c0,14.633,5.214,27.032,15.518,37.448c1.241,1.117,2.359,2.233,3.601,3.226v-5.829c-0.62-6.324,1.242-10.91,5.71-13.642
		c9.063-3.844,17.504-5.95,25.698-6.323c0.25,0,0.497,0,0.87,0c0.372-0.123,0.744-0.123,1.241-0.123h0.372c0.124,0,0.248,0,0.372,0
		c0.373,0,0.745,0,1.241,0.123c0.25,0,0.498,0,0.87,0c8.069,0.373,16.635,2.479,25.574,6.323c4.47,2.731,6.331,7.317,5.836,13.642
		v5.829c1.24-0.992,2.358-2.108,3.475-3.226c10.428-10.416,15.52-22.815,15.52-37.448c0-14.632-5.092-27.033-15.52-37.448
		C80.697,5.706,69.025,0.621,55.495,0.002z M64.806,29.389c3.227,3.348,4.966,7.316,4.966,12.154c0,4.586-1.739,8.681-4.966,12.026
		c-2.731,2.603-5.834,4.219-9.312,4.715c-0.372,0.122-0.62,0.122-0.87,0.122c-0.496,0.123-0.868,0.123-1.241,0.123
		c-0.124,0-0.124,0-0.124,0c-0.248,0-0.373,0-0.497,0c-0.124,0-0.124,0-0.124,0c-0.498,0-0.87,0-1.241-0.123
		c-0.373,0-0.621,0-0.87-0.122c-3.6-0.496-6.703-2.112-9.436-4.715c-3.228-3.346-4.84-7.44-4.84-12.026
		c0-4.837,1.613-8.806,4.84-12.154c2.732-2.603,5.836-4.092,9.436-4.711c0.25,0,0.497,0,0.87,0c0.372-0.125,0.744-0.249,1.241-0.249
		c0,0,0,0,0.124,0c0.124,0,0.249,0,0.497,0c0,0,0,0,0.124,0c0.373,0,0.745,0.124,1.241,0.249c0.25,0,0.498,0,0.87,0
		C58.972,25.297,62.075,26.786,64.806,29.389z"/>
	<path fill="#BCBCBC" d="M69.772,41.543c0-4.837-1.739-8.806-4.966-12.154c-2.731-2.603-5.834-4.092-9.312-4.711
		c-0.372,0-0.62,0-0.87,0c-0.496-0.125-0.868-0.249-1.241-0.249c-0.124,0-0.124,0-0.124,0c-0.248,0-0.373,0-0.497,0
		c-0.124,0-0.124,0-0.124,0c-0.498,0-0.87,0.124-1.241,0.249c-0.373,0-0.621,0-0.87,0c-3.6,0.619-6.703,2.108-9.436,4.711
		c-3.228,3.348-4.84,7.316-4.84,12.154c0,4.586,1.613,8.681,4.84,12.026c2.732,2.603,5.836,4.219,9.436,4.715
		c0.25,0.122,0.497,0.122,0.87,0.122c0.372,0.123,0.744,0.123,1.241,0.123c0,0,0,0,0.124,0c0.124,0,0.249,0,0.497,0c0,0,0,0,0.124,0
		c0.373,0,0.745,0,1.241-0.123c0.25,0,0.498,0,0.87-0.122c3.478-0.496,6.58-2.112,9.312-4.715
		C68.033,50.224,69.772,46.13,69.772,41.543z"/>
	<path fill="#BCBCBC" d="M53.384,67.707c-0.124,0-0.248,0-0.372,0H52.64c-0.498,0-0.87,0-1.241,0.123c-0.373,0-0.621,0-0.87,0
		c-8.194,0.373-16.636,2.479-25.698,6.323c-4.468,2.731-6.33,7.317-5.71,13.642v5.829c8.938,7.687,19.367,11.654,31.408,12.151
		c0.25,0,0.497,0,0.87,0.124c0.372,0,0.744,0,1.241,0c0,0,0.124,0,0.248,0c0.125,0,0.125,0,0.125,0c0.124,0,0.248,0,0.372,0
		c0.373,0,0.745,0,1.241,0c0.25-0.124,0.498-0.124,0.87-0.124c11.919-0.497,22.471-4.465,31.41-12.151v-5.829
		c0.495-6.324-1.366-10.91-5.836-13.642c-8.939-3.844-17.505-5.95-25.574-6.323c-0.372,0-0.62,0-0.87,0
		C54.129,67.707,53.757,67.707,53.384,67.707z"/>
</g>
</svg>
